<svg xmlns="http://www.w3.org/2000/svg" width="32" height="32" viewBox="225 160 570 570">
    <rect x="225" y="160" width="570" height="570" fill="#ffffff" />
    <circle cx="510" cy="445" r="260" fill="#ffffff" />
    <path fill="#417aa1"
          d="M702.337 260.368c8.185 6.151 23.532 25.706 29.586 34.194a265.06 265.06 0 0 1 50.043 145.991c2.669 78.189-24.86 143.764-77.87 200.325-17.502-18.107-35.956-36.029-53.665-54.194L515.242 449.562a7110 7110 0 0 1 104.576-106.28zm30.49 231.273c-.465-.84-1.734-3.007-2.079-3.784a338 338 0 0 0-10.995-20.004c-8.056 4.922-16.529 8.581-26.237 6.036a22.53 22.53 0 0 1-13.781-10.567c-6.838-11.718-4.272-29.654 8.287-36.451 9.886-5.35 21.319-2.271 30.707 2.44 4.574-7.631 9.186-15.539 13.951-23.028-9.154-7.571-24.422-13.276-36.363-11.574-15.875 1.665-28.475 7.238-39.017 19.622-17.77 20.876-14.704 60.123 6.928 77.204 18.556 14.653 50.093 16.813 68.599.106 M320.741 260.372c1.037.149 1.986 1.117 2.738 1.872l85.559 86.99 61.699 62.144a2159 2159 0 0 1 37.538 38.183c-1.62 2.069-3.709 4.05-5.552 5.957-12.422 12.856-25.141 25.439-37.759 38.103l-90.477 91.6a2728 2728 0 0 0-54.402 55.518 169 169 0 0 1-3.597-3.489c-48.819-48.718-75.075-119.587-75.179-188.11a268.22 268.22 0 0 1 79.432-188.768m23.647 181.663c-2.827-5.144-20.657-45.599-23.373-46.274-4.938.303-25.186-.213-27.987.973-.675 4.974 7.494 19.94 9.945 25.016q6.806 14.215 13.444 28.509a2832 2832 0 0 0 16.991 36.373c2.084 4.29 6.423 13.363 9.043 17.261 1.608.826.788.677 2.534.536 5.719-3.611 18.858-36.298 22.979-44.408a3285 3285 0 0 1 16.847-36.831c2.178-4.684 11.194-21.531 9.707-25.501-2.461-2.535-4.523-2.057-8.315-2.124-6.526-.116-13.12.056-19.656-.052-8.384 15.548-14.879 30.452-22.159 46.522 M511.409 453.306c3.161 1.48 28.655 28.412 33.17 32.967l102.268 103.226 33.995 34.739c6.639 6.759 13.186 13.714 20.192 20.071-3.212 2.335-8.561 7.244-11.749 9.971a270 270 0 0 1-18.565 14.726c-49.518 35.904-96.816 52.226-158.345 52.586a265.84 265.84 0 0 1-189.325-77.871l132.915-134.378c18.008-18.2 37.029-38.546 55.444-56.037 M498.31 567.687c-4.01 1.13-6.103 2.043-9.953 3.744-4.086-2.517-9.743-5.796-13.598-8.43l-15.296 14.017c1.888 3.827 5.005 9.57 6.555 13.317-1.718 4.648-3.184 8.109-5.27 12.609-4.875 1.27-10.425 2.58-15.195 4.036q.263 10.081.068 20.164a1146 1146 0 0 0 15.385 4.713c1.5 5.394 2.3 6.848 5.255 11.621-2.264 4.908-4.529 9.157-7.076 13.91 4.949 5.101 9.035 10.256 14.169 15.214 4.621-2.684 10.011-6.001 14.764-8.277l10.313 3.776c1.644 5.061 2.972 9.847 4.376 14.968a463 463 0 0 1 20.171-.008c1.747-4.685 3.408-11.075 5.03-15.117 3.577-1.558 6.698-2.49 10.428-3.657 4.047 2.813 8.557 6.105 12.698 8.69 4.607-4.54 9.976-10.144 14.681-14.423a216 216 0 0 0-7.255-14.324 539 539 0 0 0 5.663-11.202c4.581-1.793 10.389-3.409 15.226-4.356-.325-5.495-.462-15.382-.157-20.843-4.509-1.175-10.305-2.517-14.621-3.993a349 349 0 0 0-5.963-11.573c2.193-5.076 4.796-10.103 7.273-15.058-5.187-3.993-10.559-9.001-15.44-13.424-4.211 2.723-8.451 5.55-12.81 8.017-2.906-1.134-6.601-2.468-9.356-3.789a1575 1575 0 0 0-4.818-15.584 566 566 0 0 0-20.89.095 253 253 0 0 0-4.357 15.167"/>
    <path fill="#417aa1"
          d="M509.1 593.732c13.142-1.51 25.002 7.964 26.432 21.114s-8.117 24.952-21.276 26.302c-13.045 1.337-24.723-8.109-26.14-21.146s7.956-24.772 20.984-26.27 M500.592 180.256a269.06 269.06 0 0 1 167.282 50.361c12.149 8.607 19.875 17.083 30.573 25.363l.533.407c-6.308 7.39-18.266 18.619-25.452 25.76l-35.969 36.413-119.716 121.457-6.01 5.819c-7.526-6.702-16.148-16.1-23.378-23.468l-41.882-42.54a11260 11260 0 0 1-122.063-123.18c45.736-46.257 111.437-73.222 176.082-76.392m-27.639 123.102c8.509-.83 26.46 1.178 36.004 1.214-8.439 19.927-18.354 41.96-26.108 61.974l4.082-4.507c22.919-26.764 46.354-54.805 69.813-80.996-11.045-.404-31.398-.67-41.752-2.215 2.266-7.329 20.389-57.215 20.036-58.854l-41.492 55.062c-5.678 7.584-15.759 20.53-20.583 28.322"/>
</svg>
